# xmcd
#
# Track frame offsets:
#	150
#	17945
#	36361
#	56202
#	69775
#	83958
#	99651
#	116042
#	133135
#	156325
#	170177
#	184977
#	200784
#	215563
#	230736
#	247674
#	265856
#
# Disc length: 3742 seconds
#
# Revision: 1
# Processed by: cddbd v1.5.2PL0 Copyright (c) Steve Scherf et al.
# Submitted via: audiograbber 1.83.01
#
DISCID=060e9c11
DTITLE=Chartbusters - Esp453-04
DYEAR=1900
DGENRE=
TTITLE0=Gill, Vince - Don't Let Our Love Start Slipping Away
TTITLE1=Stone, Doug - Too Busy Being In Love
TTITLE2=McEntire, Reba - Does He Love You
TTITLE3=Walker, Clay - Live Until I Die
TTITLE4=Tippin, Aaron - Kiss this
TTITLE5=Tillis, Pam - Cleopatra Queen Of Denial
TTITLE6=Black Clint - When My Ship Comes In
TTITLE7=Keith, Toby - Should've Been A Cowboy
TTITLE8=Loveless, Patty - How Can I Help You Say Goodbye
TTITLE9=Chesnutt, Mark - It Sure Is Monday
TTITLE10=Anderson, John - Money In The Bank
TTITLE11=McEntire, Reba - Take It Back
TTITLE12=Lawrence, tracy - Alibis
TTITLE13=Stone, Doug - Why didn't I Think Of That
TTITLE14=Tritt, Travis - Can I Trust You With My Heart
TTITLE15=McEntire, Reba - The Heart Is A Lonely Hunter
TTITLE16=Gill, Vince - One More Last Chance
EXTD=
EXTT0=
EXTT1=
EXTT2=
EXTT3=
EXTT4=
EXTT5=
EXTT6=
EXTT7=
EXTT8=
EXTT9=
EXTT10=
EXTT11=
EXTT12=
EXTT13=
EXTT14=
EXTT15=
EXTT16=
PLAYORDER=
